<?xml version="1.0" encoding="iso-8859-1"?>
<!-- Uploaded to: SVG Repo, www.svgrepo.com, Generator: SVG Repo Mixer Tools -->
<svg fill="#000000" height="800px" width="800px" version="1.1" id="Layer_1" xmlns="http://www.w3.org/2000/svg" xmlns:xlink="http://www.w3.org/1999/xlink" 
	 viewBox="0 0 512 512" xml:space="preserve">
<g>
	<g>
		<g>
			<path d="M401.067,34.133H358.4v-0.009C358.4,15.309,343.091,0,324.275,0h-136.55C168.909,0,153.6,15.309,153.6,34.125v0.009
				h-42.667c-23.526,0-42.667,19.14-42.667,42.667c0,23.526,19.14,42.667,42.667,42.667h290.133
				c23.526,0,42.667-19.14,42.667-42.667C443.733,53.274,424.593,34.133,401.067,34.133z M170.667,34.125
				c0-9.404,7.654-17.058,17.058-17.058h136.55c9.404,0,17.058,7.654,17.058,17.058l-170.667,0.009V34.125z M392.533,85.333H119.467
				c-4.71,0-8.533-3.823-8.533-8.533s3.823-8.533,8.533-8.533h273.067c4.71,0,8.533,3.823,8.533,8.533
				S397.244,85.333,392.533,85.333z"/>
			<path d="M290.133,401.067h-68.267c-14.114,0-25.6,11.486-25.6,25.6s11.486,25.6,25.6,25.6h68.267c14.114,0,25.6-11.486,25.6-25.6
				S304.247,401.067,290.133,401.067z M273.067,435.2h-34.133c-4.71,0-8.533-3.823-8.533-8.533s3.823-8.533,8.533-8.533h34.133
				c4.71,0,8.533,3.823,8.533,8.533S277.777,435.2,273.067,435.2z"/>
			<path d="M369.374,358.4H142.626l-31.078,122.445c-1.698,7.62,0.128,15.479,5.018,21.572c4.881,6.093,12.16,9.583,19.968,9.583
				h238.933c7.808,0,15.087-3.49,19.968-9.583c4.89-6.093,6.716-13.952,4.958-21.82L369.374,358.4z M290.133,469.333h-68.267
				c-23.526,0-42.667-19.14-42.667-42.667S198.34,384,221.867,384h68.267c23.526,0,42.667,19.14,42.667,42.667
				S313.66,469.333,290.133,469.333z"/>
			<path d="M143.41,341.333h225.178l36.574-204.8H106.836L143.41,341.333z M298.666,273.066h24.465l4.514-25.6h-20.446
				c-4.71,0-8.533-3.823-8.533-8.533s3.823-8.533,8.533-8.533h23.458l4.523-25.6h-19.447c-4.71,0-8.533-3.823-8.533-8.533
				c0-4.71,3.823-8.533,8.533-8.533h22.46l3.268-18.551c0.819-4.642,5.282-7.706,9.89-6.921c4.642,0.819,7.74,5.248,6.921,9.89
				l-25.6,145.067c-0.725,4.139-4.335,7.049-8.397,7.049c-0.495,0-0.99-0.043-1.493-0.128c-4.642-0.819-7.731-5.248-6.921-9.89
				l4.258-24.115h-21.453c-4.71,0-8.533-3.823-8.533-8.533C290.133,276.889,293.955,273.066,298.666,273.066z"/>
		</g>
	</g>
</g>
</svg>